<?xml version="1.0" standalone="no"?>
<!DOCTYPE svg PUBLIC "-//W3C//DTD SVG 20010904//EN"
 "http://www.w3.org/TR/2001/REC-SVG-20010904/DTD/svg10.dtd">
<svg version="1.0" xmlns="http://www.w3.org/2000/svg"
 width="1241.000000pt" height="1227.000000pt" viewBox="0 0 1241.000000 1227.000000"
 preserveAspectRatio="xMidYMid meet">

<g transform="translate(0.000000,1227.000000) scale(0.100000,-0.100000)"
fill="#000000" stroke="none">
<path d="M5860 12189 c-706 -36 -1426 -206 -2075 -489 -918 -401 -1710 -1009
-2333 -1793 -586 -736 -1001 -1625 -1186 -2541 -63 -311 -116 -745 -116 -957
l0 -86 46 -7 c140 -19 343 7 521 66 82 27 217 88 415 187 161 81 327 159 368
173 202 71 385 96 576 78 65 -6 120 -12 122 -14 2 -2 -25 -59 -59 -127 -34
-68 -86 -178 -115 -244 l-52 -120 -143 -7 c-236 -11 -388 -60 -699 -227 -390
-211 -564 -266 -833 -266 l-147 0 6 -75 c14 -174 33 -342 39 -348 15 -15 244
-13 329 3 155 29 234 63 518 223 199 112 303 159 432 196 88 26 302 54 329 43
13 -5 10 -26 -18 -139 -19 -73 -42 -175 -51 -225 l-16 -93 -39 0 c-21 0 -83
-9 -137 -19 -144 -28 -239 -71 -501 -223 -302 -177 -429 -221 -647 -222 l-130
-1 23 -105 c13 -58 40 -167 60 -242 l37 -138 81 0 c152 0 274 47 515 201 254
162 410 224 592 236 l86 6 -4 -199 -4 -198 -562 -215 c-310 -118 -565 -216
-568 -218 -7 -6 38 -127 117 -310 l75 -172 31 6 c110 20 171 55 368 208 193
150 309 200 489 212 l96 6 24 -139 c12 -77 25 -153 27 -169 l5 -31 -64 -2
c-160 -6 -271 -58 -448 -211 -163 -142 -209 -170 -347 -207 -13 -3 76 -164
189 -341 l65 -102 49 33 c27 19 96 77 154 131 182 167 324 247 468 262 28 3
52 7 52 8 0 2 -20 73 -45 159 -25 87 -45 166 -45 177 0 16 7 19 46 19 151 0
411 68 578 152 103 51 233 136 312 202 l61 51 -4 70 c-9 132 42 293 148 470
57 96 118 178 399 548 131 172 207 301 235 402 34 116 6 316 -94 669 -102 357
-128 538 -118 801 18 447 222 899 557 1236 93 94 213 188 180 142 -8 -12 -51
-72 -96 -135 -273 -381 -405 -735 -421 -1123 -11 -257 16 -420 137 -821 81
-271 107 -392 121 -554 12 -131 7 -204 -23 -298 -45 -146 -134 -292 -353 -577
-230 -299 -306 -420 -363 -580 -20 -56 -26 -95 -29 -195 -8 -208 37 -362 200
-685 l90 -179 -59 -54 c-184 -168 -456 -333 -679 -412 -167 -59 -357 -85 -446
-60 -52 15 -84 55 -135 171 -25 57 -49 108 -53 112 -12 12 -143 -18 -197 -46
-77 -39 -163 -107 -265 -208 -52 -52 -112 -108 -133 -126 l-38 -31 48 -64 c89
-117 248 -308 254 -306 4 2 38 39 77 83 144 164 264 261 380 305 l50 19 63
-114 c34 -63 62 -117 62 -121 0 -4 -21 -15 -45 -24 -58 -22 -125 -69 -190
-133 -55 -54 -197 -226 -197 -239 0 -4 79 -81 176 -172 l176 -166 48 68 c62
87 168 201 231 248 58 43 46 49 143 -75 l65 -83 -45 -38 c-25 -20 -67 -63 -95
-96 -51 -60 -143 -194 -137 -198 184 -146 427 -318 439 -310 5 3 9 15 9 26 0
42 43 165 92 263 49 99 167 279 278 425 164 216 281 427 319 574 36 138 37
244 5 406 -8 42 83 -140 113 -225 26 -73 28 -92 27 -215 0 -118 -4 -146 -28
-225 -37 -121 -104 -257 -221 -450 -150 -245 -205 -343 -242 -424 -37 -81 -77
-209 -87 -283 l-7 -46 63 -38 c35 -20 113 -63 174 -96 l111 -58 7 65 c20 192
86 365 316 820 243 480 290 613 276 791 -14 184 -85 348 -312 715 -277 447
-356 649 -355 897 1 229 98 441 346 757 232 295 286 373 350 507 59 124 75
190 75 318 0 190 -28 314 -148 650 -117 328 -153 480 -173 713 -38 461 121
941 435 1314 42 51 112 122 154 159 77 66 193 147 200 140 2 -2 -28 -44 -66
-93 -338 -427 -475 -817 -459 -1308 8 -256 36 -377 182 -771 137 -372 166
-483 186 -710 27 -319 -48 -494 -406 -949 -276 -350 -349 -503 -349 -730 1
-237 69 -400 357 -848 268 -417 333 -567 344 -795 12 -233 -51 -419 -285 -844
-234 -425 -324 -656 -339 -873 l-6 -81 104 -44 c57 -23 145 -57 194 -75 50
-19 97 -36 105 -39 13 -5 15 13 16 131 1 115 6 154 28 237 55 204 102 309 377
846 84 164 140 288 169 375 l45 130 0 150 c0 148 -1 152 -38 260 -21 61 -62
155 -91 210 -49 93 -88 155 -317 510 -149 232 -239 430 -269 593 -16 90 -13
248 6 333 19 87 102 266 166 360 25 36 112 151 194 255 165 211 221 294 275
404 78 159 104 302 88 484 -19 217 -70 387 -219 730 -174 399 -220 570 -227
850 -6 196 4 302 43 459 75 302 218 561 438 795 206 218 355 278 207 84 -192
-251 -310 -522 -360 -824 -19 -111 -29 -336 -20 -448 18 -243 67 -402 269
-860 192 -436 239 -596 247 -840 5 -124 2 -173 -11 -240 -46 -224 -135 -390
-361 -675 -257 -323 -329 -477 -329 -710 1 -241 73 -412 354 -835 172 -259
229 -354 291 -484 143 -305 148 -550 18 -879 -22 -56 -116 -257 -209 -447 -92
-190 -184 -389 -204 -443 -78 -209 -112 -393 -101 -537 10 -127 9 -125 68
-139 103 -24 380 -81 382 -79 1 2 -1 30 -6 63 -32 249 17 541 143 855 17 41
99 219 183 395 243 507 281 651 240 888 -36 208 -111 355 -412 805 -180 270
-285 467 -330 617 -22 76 -26 110 -27 220 0 94 5 148 17 195 30 110 109 255
214 394 54 70 126 165 160 210 145 190 217 350 248 550 4 26 18 51 39 72 57
57 79 56 296 -6 233 -66 406 -63 672 10 166 46 190 48 235 20 42 -25 60 -62
78 -159 37 -192 110 -332 295 -566 265 -335 332 -479 333 -720 0 -251 -73
-412 -424 -935 -183 -274 -260 -414 -316 -576 -36 -106 -37 -113 -38 -254 0
-220 29 -310 238 -745 196 -409 260 -573 306 -785 30 -142 44 -336 33 -450 -6
-52 -9 -96 -7 -98 2 -2 277 54 382 79 47 11 52 15 58 46 10 52 7 224 -5 299
-21 136 -80 321 -153 485 -14 31 -85 177 -157 324 -206 419 -259 562 -281 760
-15 133 -2 237 47 384 51 155 128 292 337 610 203 307 300 487 336 620 59 217
41 404 -55 595 -52 103 -113 192 -249 361 -276 344 -366 554 -366 856 -1 250
53 442 251 894 215 491 259 639 267 907 15 473 -103 853 -383 1225 -95 127
-63 151 63 50 262 -213 481 -549 572 -882 47 -170 56 -242 56 -465 0 -187 -3
-229 -23 -319 -34 -156 -88 -307 -210 -591 -174 -404 -216 -557 -216 -785 0
-296 77 -461 407 -870 167 -207 275 -390 314 -535 14 -50 18 -101 17 -220 0
-138 -3 -164 -27 -243 -54 -175 -124 -306 -349 -650 -153 -234 -262 -428 -299
-533 -77 -223 -66 -422 36 -669 20 -50 117 -247 214 -440 186 -367 245 -505
285 -659 29 -110 50 -279 44 -347 -3 -27 -4 -49 -2 -49 5 0 315 120 364 141
58 25 59 28 35 174 -32 200 -107 393 -267 688 -122 226 -242 462 -269 530 -71
180 -99 369 -74 508 36 210 105 351 365 754 257 398 333 580 333 800 0 243
-71 386 -391 794 -63 79 -140 183 -172 230 -262 390 -264 702 -10 1366 136
355 178 529 187 770 14 391 -79 742 -279 1063 -57 91 -161 236 -215 300 -24
28 -40 52 -35 52 24 0 146 -94 241 -185 219 -211 376 -465 471 -760 133 -417
114 -788 -65 -1300 -149 -422 -166 -492 -173 -697 -4 -140 -3 -152 23 -235 47
-154 122 -277 340 -553 317 -403 407 -590 406 -845 0 -240 -80 -439 -351 -875
-162 -261 -238 -404 -282 -530 -31 -89 -33 -103 -32 -225 1 -207 30 -287 312
-845 186 -369 240 -508 268 -694 l17 -106 111 58 c61 33 139 76 174 96 l63 38
-6 41 c-23 148 -103 336 -235 552 -218 357 -290 500 -330 661 -29 115 -25 284
9 384 22 63 112 253 118 247 1 -2 -5 -41 -13 -88 -48 -248 37 -495 286 -839
174 -241 282 -404 328 -495 43 -87 92 -231 92 -272 0 -18 4 -24 15 -19 35 13
217 143 423 302 26 19 -132 231 -236 316 l-32 27 66 83 c99 123 85 116 141 75
64 -47 146 -134 220 -234 l61 -82 176 165 c97 91 176 169 176 173 0 15 -157
197 -223 258 -39 36 -96 76 -140 98 l-74 37 65 118 65 119 50 -19 c117 -45
238 -142 376 -304 41 -47 77 -86 81 -86 7 0 128 147 235 284 l69 89 -30 20
c-16 12 -90 80 -164 152 -158 152 -242 205 -360 229 -41 8 -78 12 -82 8 -3 -4
-27 -54 -52 -111 -69 -158 -99 -181 -236 -181 -215 0 -508 109 -776 288 -104
70 -281 212 -299 241 -3 6 36 95 88 198 147 297 197 460 197 647 0 151 -41
279 -145 451 -45 75 -84 129 -349 479 -255 339 -313 516 -272 826 19 142 34
204 121 495 82 274 99 347 120 505 67 491 -100 1027 -467 1498 -26 34 -45 62
-40 62 21 0 185 -145 260 -231 253 -287 425 -666 471 -1039 34 -268 -2 -544
-123 -962 -69 -238 -88 -344 -90 -488 -1 -118 1 -129 30 -201 41 -103 128
-231 328 -489 203 -262 265 -352 337 -496 69 -137 91 -220 94 -347 l1 -98 73
-59 c87 -72 229 -161 329 -207 164 -76 394 -133 536 -133 49 0 56 -3 56 -19 0
-11 -20 -90 -45 -177 -25 -86 -45 -158 -45 -160 0 -2 15 -4 33 -4 86 0 231
-60 342 -142 33 -25 105 -86 160 -138 55 -51 120 -105 144 -121 l44 -28 74
117 c111 175 185 310 178 322 -3 5 -16 10 -28 10 -60 0 -183 79 -340 218 -142
126 -285 190 -424 191 -43 1 -63 5 -63 14 0 6 12 83 27 171 l27 159 96 -6
c180 -11 298 -64 502 -224 177 -140 246 -178 354 -197 l31 -5 60 137 c33 75
77 182 99 236 35 89 37 100 22 109 -9 6 -264 105 -568 221 l-552 211 -3 199
-4 199 92 -6 c174 -11 338 -77 583 -234 240 -155 333 -192 494 -200 l105 -5
43 163 c23 90 51 200 60 244 l18 80 -140 1 c-123 1 -153 4 -231 28 -115 34
-237 93 -433 208 -263 154 -408 211 -572 224 l-78 7 -17 89 c-9 48 -31 149
-49 223 l-33 135 91 0 c203 0 393 -67 711 -250 211 -121 350 -180 500 -211 69
-15 303 -15 317 -1 9 9 26 156 42 352 l6 76 -94 -4 c-52 -2 -137 1 -188 7
-202 23 -346 76 -667 244 -387 203 -497 239 -728 241 l-142 1 -27 65 c-15 36
-67 148 -116 248 -49 101 -88 186 -86 188 14 14 247 24 345 14 228 -21 351
-65 747 -264 360 -181 500 -228 721 -242 56 -4 132 -3 169 1 l69 7 -7 156
c-32 785 -254 1623 -622 2362 -373 747 -858 1369 -1489 1911 -573 491 -1278
890 -2010 1136 -714 239 -1474 342 -2245 302z m489 -722 c85 -199 157 -365
160 -369 3 -3 182 -18 396 -33 215 -14 393 -27 397 -28 4 -1 -127 -121 -292
-266 l-299 -264 21 -51 c11 -28 69 -181 130 -341 61 -159 114 -294 119 -299 4
-5 43 24 89 68 232 217 626 412 990 487 103 21 291 51 295 47 2 -2 -42 -75
-96 -163 -116 -187 -264 -481 -343 -681 -63 -157 -67 -178 -33 -147 41 38 211
145 311 195 196 98 440 174 636 197 52 6 108 14 124 16 37 6 35 2 -64 -130
-195 -259 -380 -561 -513 -833 -92 -190 -101 -198 -175 -165 -546 242 -880
347 -1317 414 -320 49 -783 64 -1115 34 -487 -43 -1008 -181 -1445 -382 -77
-35 -153 -69 -168 -75 -53 -20 -71 -1 -145 154 -127 266 -331 598 -526 858
-47 63 -86 118 -86 122 0 5 10 6 23 4 12 -3 51 -8 87 -11 99 -10 286 -51 407
-91 148 -48 368 -158 496 -248 59 -41 107 -70 107 -65 0 26 -120 312 -196 466
-71 143 -215 397 -288 505 l-18 27 54 -5 c93 -10 219 -34 353 -68 354 -91 661
-254 900 -477 37 -36 69 -58 74 -53 5 5 66 160 136 344 70 184 129 338 131
341 1 3 -132 124 -296 270 -164 145 -298 265 -297 265 1 1 180 14 397 29 217
15 398 30 401 33 3 4 75 170 160 369 85 200 156 363 159 363 3 0 74 -163 159
-363z m-4789 -2266 c94 -70 245 -232 316 -336 116 -170 210 -389 252 -586 l17
-78 75 44 c160 96 396 177 593 204 111 16 346 14 452 -4 89 -14 234 -52 296
-77 l30 -13 -98 -71 c-251 -183 -554 -466 -755 -704 -90 -107 -248 -313 -298
-389 l-16 -23 -109 28 c-98 26 -127 29 -265 29 -261 0 -409 -43 -860 -250
-335 -154 -474 -195 -657 -195 -113 0 -217 15 -211 30 2 5 51 62 109 127 500
555 798 1053 924 1547 51 199 68 334 69 547 1 198 6 219 50 219 11 0 50 -22
86 -49z m9381 32 c11 -12 14 -60 15 -202 2 -213 19 -350 69 -546 127 -496 399
-956 898 -1518 72 -82 133 -153 135 -157 6 -16 -115 -34 -218 -33 -177 3 -334
52 -692 217 -112 51 -248 110 -303 131 -290 109 -543 131 -785 69 l-104 -26
-16 23 c-41 65 -244 326 -324 419 -198 229 -494 503 -718 665 -53 39 -97 73
-97 76 -2 18 226 81 357 100 138 19 393 7 537 -25 142 -33 337 -108 455 -176
71 -41 86 -46 88 -32 28 154 105 375 173 499 99 178 244 351 394 470 82 65
112 75 136 46z m-4451 -362 c403 -91 718 -335 836 -647 35 -94 29 -99 -88 -60
-215 71 -480 49 -659 -55 -36 -21 -88 -58 -116 -83 -50 -45 -51 -47 -71 -148
-39 -194 -37 -360 9 -528 28 -105 30 -107 71 -84 24 14 46 45 80 109 74 140
87 145 233 94 149 -53 298 -42 401 27 31 22 40 23 68 14 84 -27 119 -106 118
-270 0 -585 -477 -1292 -977 -1450 -107 -34 -258 -38 -365 -11 -172 43 -337
142 -493 295 -319 314 -527 770 -531 1166 -1 119 2 141 21 182 25 55 71 88
123 88 19 0 64 -14 100 -32 62 -31 71 -33 180 -33 100 0 127 4 203 29 108 35
141 32 234 -23 38 -23 76 -41 85 -41 12 0 20 18 32 73 23 110 27 183 17 287
-17 170 -27 198 -85 256 -178 173 -507 230 -786 134 -54 -19 -88 -26 -94 -20
-11 11 12 85 52 165 145 291 485 517 877 580 132 21 400 14 525 -14z m-1013
-896 c148 -46 263 -141 263 -216 0 -16 -4 -20 -17 -14 -46 18 -205 53 -268 59
-38 4 -103 2 -143 -3 -68 -10 -163 -48 -177 -71 -12 -19 -25 -10 -55 37 -52
81 -38 163 33 200 53 27 78 31 184 32 82 1 117 -4 180 -24z m1780 -3 c55 -29
73 -57 73 -112 0 -34 -8 -59 -30 -93 -33 -52 -39 -55 -64 -28 -10 11 -41 30
-69 43 -46 20 -66 23 -172 21 -95 -1 -139 -6 -210 -27 -49 -14 -91 -24 -93
-21 -2 2 -4 25 -4 52 0 42 4 51 34 76 44 38 120 77 193 99 89 26 283 21 342
-10z"/>
<path d="M6020 9974 c-91 -69 -234 -177 -317 -241 -202 -153 -202 -161 2 -131
93 14 210 21 415 25 254 5 306 3 475 -17 105 -12 199 -23 210 -24 56 -3 3 45
-295 273 -173 132 -317 241 -320 241 -3 0 -79 -57 -170 -126z"/>
<path d="M5989 6978 c-53 -14 -103 -59 -95 -84 10 -31 211 -98 296 -98 50 0
92 9 177 39 132 45 146 62 93 106 -52 44 -114 54 -201 33 -68 -17 -76 -17
-138 -1 -73 19 -80 19 -132 5z"/>
<path d="M5732 6573 l-22 -18 119 -126 c105 -110 128 -130 193 -160 67 -31 81
-34 168 -34 86 0 101 3 165 33 60 28 88 51 193 160 l122 127 -21 18 c-12 10
-28 16 -35 13 -8 -3 -53 -11 -101 -18 -169 -25 -666 -13 -747 18 -7 3 -22 -3
-34 -13z"/>
<path d="M10020 960 l0 -50 155 0 155 0 0 -415 0 -415 55 0 55 0 0 415 0 415
150 0 150 0 0 50 0 50 -360 0 -360 0 0 -50z"/>
<path d="M10880 545 l0 -465 50 0 50 0 0 387 c0 240 4 383 9 378 6 -6 83 -180
171 -387 l162 -378 33 0 32 0 164 385 c90 212 167 385 172 385 4 0 7 -173 7
-385 l0 -385 50 0 50 0 0 465 0 465 -77 0 -78 0 -154 -358 c-85 -196 -157
-361 -161 -365 -4 -4 -78 156 -166 357 l-158 366 -78 0 -78 0 0 -465z"/>
</g>
</svg>
